<svg xmlns="http://www.w3.org/2000/svg" viewBox="0 0 149.15 45.08"><defs><style>.cls-1{fill:#8292a6;}</style></defs><title>Asset 1</title><g id="Layer_2" data-name="Layer 2"><g id="Layer_1-2" data-name="Layer 1"><path class="cls-1" d="M59.48,20.28H76.55V4.81h6V44.37h-6V25.89H59.48V44.37h-6V4.81h6Z"/><path class="cls-1" d="M104.15,19.41h5.79v25h-5.79V41.75a11.08,11.08,0,0,1-16.22-.41,13.89,13.89,0,0,1-3.36-9.53,13.46,13.46,0,0,1,3.36-9.35,10.83,10.83,0,0,1,8.4-3.74,10.63,10.63,0,0,1,7.82,3.59ZM90.47,31.81a8.69,8.69,0,0,0,1.92,5.84,6.25,6.25,0,0,0,5,2.28,6.63,6.63,0,0,0,5.18-2.2,8.56,8.56,0,0,0,2-5.79,8.56,8.56,0,0,0-2-5.79,6.53,6.53,0,0,0-5.13-2.23,6.35,6.35,0,0,0-5,2.26A8.26,8.26,0,0,0,90.47,31.81Z"/><path class="cls-1" d="M111.18,19.41H117v2.23a11,11,0,0,1,2.82-2.28,6.38,6.38,0,0,1,3-.64,9.29,9.29,0,0,1,4.76,1.49l-2.64,5.27a5.52,5.52,0,0,0-3.2-1.17q-4.71,0-4.71,7.12V44.37h-5.77Z"/><path class="cls-1" d="M148.92,33.25H131a7.59,7.59,0,0,0,2,4.89,6.08,6.08,0,0,0,4.54,1.79,5.93,5.93,0,0,0,3.56-1,14.67,14.67,0,0,0,3.15-3.79l4.87,2.71a20,20,0,0,1-2.38,3.3,13,13,0,0,1-2.69,2.25,10.71,10.71,0,0,1-3.1,1.29,14.81,14.81,0,0,1-3.62.41,11.73,11.73,0,0,1-9-3.58A13.43,13.43,0,0,1,125,31.92a13.88,13.88,0,0,1,3.28-9.59,12.51,12.51,0,0,1,17.48-.1q3.16,3.48,3.17,9.66ZM143,28.53q-1.2-4.61-5.82-4.61a6.07,6.07,0,0,0-2,.32,5.74,5.74,0,0,0-1.68.92,6.18,6.18,0,0,0-1.29,1.45,6.79,6.79,0,0,0-.82,1.92Z"/><path class="cls-1" d="M32.7,35.36c1.48-.28,3.9-.92,5.25-2.27,2-2,2.15-3.33,2.08-4.69v-.14c-.12-2.85-3.72-6.94-5.17-8.48L35.12,0l-3,.46c-1.6,1.29-5.79,5.13-5.93,10.14L19.09,2.46l-2.25.35-.12.37c-.11.34-2.77,8.53,2.39,13.69,4.12,4.12,10.29,4.51,12.5,4.51h.62l2.17,2.45c1.37,1.71,2.6,3.57,2.64,4.56v.17c0,.72.06,1.16-1.2,2.42-.89.89-3.35,1.46-4.68,1.6l-1.33.15v1.34A8.31,8.31,0,0,1,29,37.43a20.37,20.37,0,0,1-2.86,3.74H18.4a8.35,8.35,0,0,0,3.29-6.62,9.33,9.33,0,0,0-2.57-7,8.93,8.93,0,0,0-6-2.36l.08,3A6,6,0,0,1,17,29.69a6.51,6.51,0,0,1,1.67,4.86c0,2.14-1.17,3.9-3.49,5.21a14,14,0,0,1-3.53,1.36,5.93,5.93,0,0,0,.35-2,6,6,0,0,0-6-6H5.9a13.57,13.57,0,0,1,1.41-5.44c2-3.93,7.2-5.82,7.25-5.84a12,12,0,0,1,3.07-.43v-3a14.84,14.84,0,0,0-4,.59c-1.77.59-6.83,3.06-9,7.33a16.22,16.22,0,0,0-1.73,7.65,6,6,0,0,0,.22,10.43H34.36V41.18h-4.3a16.47,16.47,0,0,0,1.57-2.37A10.9,10.9,0,0,0,32.7,35.36ZM32.07,4.64l-.16,11.63a15.45,15.45,0,0,1-2.64-4.42C28.81,9,30.49,6.38,32.07,4.64ZM21.22,14.76C19,12.5,18.78,9.23,19,6.92l9.85,11.27A13.56,13.56,0,0,1,21.22,14.76ZM6,42.11a3,3,0,1,1,3-3A3,3,0,0,1,6,42.11Z"/><rect class="cls-1" x="27.37" y="24.86" width="3.07" height="3.07"/></g></g></svg>