<?xml version="1.0" encoding="utf-8"?>
<!-- Generator: Adobe Illustrator 23.0.3, SVG Export Plug-In . SVG Version: 6.00 Build 0)  -->
<svg version="1.1" id="Layer_1" xmlns="http://www.w3.org/2000/svg" xmlns:xlink="http://www.w3.org/1999/xlink" x="0px" y="0px"
	 viewBox="0 0 149.1 45.1" style="enable-background:new 0 0 149.1 45.1;" xml:space="preserve">
<style type="text/css">
	.st0{fill:#FFFFFF;}
</style>
<title>Asset 1</title>
<g>
	<g id="Layer_1-2">
		<path class="st0" d="M59.5,20.3h17.1V4.8h6v39.6h-6V25.9H59.5v18.5h-6V4.8h6V20.3z"/>
		<path class="st0" d="M104.2,19.4h5.8v25h-5.8v-2.7c-4.3,4.4-11.3,4.4-15.7,0.2c-0.2-0.2-0.4-0.4-0.6-0.6c-2.3-2.6-3.5-6-3.4-9.5
			c-0.1-3.4,1.1-6.8,3.4-9.4c2.1-2.4,5.2-3.8,8.4-3.7c3,0,5.8,1.3,7.8,3.6V19.4z M90.5,31.8c-0.1,2.1,0.6,4.2,1.9,5.8
			c1.2,1.5,3.1,2.3,5,2.3c2,0.1,3.9-0.7,5.2-2.2c1.4-1.6,2.1-3.7,2-5.8c0.1-2.1-0.6-4.2-2-5.8c-1.3-1.5-3.2-2.3-5.1-2.2
			c-1.9,0-3.8,0.8-5,2.3C91.1,27.7,90.4,29.8,90.5,31.8z"/>
		<path class="st0" d="M111.2,19.4h5.8v2.2c0.8-0.9,1.8-1.7,2.8-2.3c0.9-0.5,2-0.7,3-0.6c1.7,0.1,3.3,0.6,4.8,1.5l-2.6,5.3
			c-0.9-0.7-2-1.1-3.2-1.2c-3.1,0-4.7,2.4-4.7,7.1v12.9h-5.8L111.2,19.4z"/>
		<path class="st0" d="M148.9,33.2H131c0.1,1.8,0.8,3.6,2,4.9c1.2,1.2,2.8,1.9,4.5,1.8c1.3,0.1,2.5-0.3,3.6-1
			c1.3-1.1,2.3-2.4,3.1-3.8l4.9,2.7c-0.7,1.2-1.5,2.3-2.4,3.3c-0.8,0.9-1.7,1.6-2.7,2.2c-1,0.6-2,1-3.1,1.3
			c-1.2,0.3-2.4,0.4-3.6,0.4c-3.4,0.2-6.7-1.1-9-3.6c-2.3-2.6-3.5-6.1-3.3-9.6c-0.2-3.5,1-6.9,3.3-9.6c4.8-4.8,12.6-4.8,17.5-0.1
			c2.1,2.3,3.2,5.5,3.2,9.7L148.9,33.2z M143,28.5c-0.8-3.1-2.7-4.6-5.8-4.6c-0.7,0-1.4,0.1-2,0.3c-0.6,0.2-1.2,0.5-1.7,0.9
			c-0.5,0.4-0.9,0.9-1.3,1.5c-0.4,0.6-0.6,1.2-0.8,1.9H143z"/>
		<path class="st0" d="M32.7,35.4c1.5-0.3,3.9-0.9,5.2-2.3c2-2,2.2-3.3,2.1-4.7v-0.1c-0.1-2.9-3.7-6.9-5.2-8.5L35.1,0l-3,0.5
			c-1.6,1.3-5.8,5.1-5.9,10.1l-7.1-8.1l-2.2,0.3l-0.1,0.4c-0.1,0.3-2.8,8.5,2.4,13.7c4.1,4.1,10.3,4.5,12.5,4.5h0.6l2.2,2.5
			c1.4,1.7,2.6,3.6,2.6,4.6v0.2c0,0.7,0.1,1.2-1.2,2.4c-0.9,0.9-3.3,1.5-4.7,1.6l-1.3,0.2v1.3c0,1.2-0.3,2.3-0.8,3.4
			c-0.8,1.4-1.8,2.6-2.9,3.7h-7.7c2.1-1.6,3.3-4,3.3-6.6c0.2-2.6-0.8-5.1-2.6-7c-1.6-1.5-3.8-2.3-6-2.4l0.1,3c1.4,0,2.7,0.6,3.8,1.5
			c1.2,1.3,1.8,3.1,1.7,4.9c0,2.1-1.2,3.9-3.5,5.2c-1.1,0.6-2.3,1.1-3.5,1.4c0.2-0.6,0.3-1.3,0.4-2c0-3.3-2.7-6-6-6H5.9
			c0.1-1.9,0.6-3.7,1.4-5.4c2-3.9,7.2-5.8,7.2-5.8c1-0.3,2-0.4,3.1-0.4v-3c-1.4,0-2.7,0.2-4,0.6c-1.8,0.6-6.8,3.1-9,7.3
			c-1.2,2.4-1.8,5-1.7,7.7c-2.8,1.7-3.8,5.4-2.1,8.2c0.6,0.9,1.3,1.7,2.3,2.2h31.2v-3.2h-4.3c0.6-0.7,1.1-1.5,1.6-2.4
			C32.2,37.7,32.5,36.6,32.7,35.4z M32.1,4.6l-0.2,11.6c-1.1-1.3-2-2.8-2.6-4.4C28.8,9,30.5,6.4,32.1,4.6z M21.2,14.8
			C19,12.5,18.8,9.2,19,6.9l9.9,11.3C26,17.9,23.3,16.7,21.2,14.8z M6,42.1c-1.7,0-3-1.3-3-3s1.3-3,3-3s3,1.3,3,3S7.7,42.1,6,42.1z"
			/>
		<rect x="27.4" y="24.9" class="st0" width="3.1" height="3.1"/>
	</g>
</g>
</svg>
